<svg width="154" height="121" viewBox="0 0 154 121" fill="none" xmlns="http://www.w3.org/2000/svg">
<g clip-path="url(#clip0_11_27)">
<path d="M19.9992 33.7051L75.881 1.56323L148.055 11.1969L145.547 25.435L131.837 33.6157L131.253 48.2124L148.751 47.1163L141.201 65.7129L148.304 68.1269C142.763 73.4989 144.041 79.7388 144.851 85.919L96.1408 117.81L24.0972 112.719C14.3152 106.107 20.6897 102.805 19.4696 97.9472L10.7353 90.6575C-1.7471 87.0293 5.95347 83.2158 4.99809 79.4817L20.7195 70.7421L27.9966 50.8043C27.9966 50.8043 8.99675 49.5973 19.9992 33.7051Z" fill="white"/>
<path d="M83.9948 119.218C70.3652 118.692 59.9117 117.88 32.7527 115.236C22.5288 114.241 22.5656 114.248 20.5141 112.93C17.3504 110.898 15.971 108.505 15.8428 104.828C15.7557 102.328 16.2665 101.004 17.9319 99.4147L19.4694 97.9472L16.503 97.9244C14.8715 97.912 12.9979 97.907 12.3396 97.9133C11.2936 97.9234 11.0171 97.7262 10.1486 96.3499C9.41197 95.1827 9.1869 94.4175 9.27942 93.3945C9.38732 92.2009 9.30089 92.0074 8.63967 91.9651C8.21914 91.9381 7.69972 92.0704 7.48541 92.2589C7.21691 92.4951 6.60195 92.4572 5.50678 92.1372C1.47424 90.9583 -0.313615 88.193 0.0448426 83.6891C0.567844 77.081 5.37465 76.576 8.95909 74.5738C10.1356 73.887 12.0274 72.912 13.1631 72.4072C14.2989 71.9024 16.0545 71.0064 17.0644 70.4161C20.4548 68.4345 20.2452 68.7023 19.9883 66.6802C19.4281 62.2709 19.6129 60.1284 20.7736 57.5746C22.1313 54.5877 22.7531 53.7334 23.9625 53.193L24.9112 52.7691L23.8708 52.4538C20.4861 51.428 19.3849 50.7625 17.3855 48.534C14.8774 45.7387 14.3211 44.0184 15.1905 41.7459C16.9696 34.2097 23.2908 30.5488 29.0774 26.7891C32.7946 24.357 37.8529 21.3686 38.2132 21.3917C38.4383 21.4063 43.9268 17.9666 44.3102 17.5709C44.4142 17.4634 44.8686 17.2004 45.3197 16.9862C47.2874 16.0523 47.7799 15.7976 48.2086 15.4921C48.708 15.1363 49.1845 14.8461 55.1941 11.2377C57.4469 9.88506 59.7604 8.5346 60.3353 8.2367C61.5745 7.59461 62.2365 7.22123 64.5465 5.86146C65.5008 5.2997 67.6478 4.1902 69.3175 3.39598C70.9872 2.60178 73.1708 1.46639 74.1699 0.872875C75.5611 0.046475 76.1938 -0.137035 76.8714 0.0893953C77.7504 0.383136 79.1794 0.490679 83.5755 0.593628C84.8374 0.623129 86.8932 0.812732 88.1441 1.01466C94.2383 1.99883 100.353 2.64485 115.532 3.90815C121.237 4.383 126.614 4.87793 127.48 5.00802C132.457 5.7551 144.204 6.84785 145.226 6.6587C145.423 6.62229 145.856 6.73271 146.189 6.90416C146.521 7.07558 147.228 7.16122 147.759 7.09452C148.904 6.95067 151.111 8.15386 151.431 9.09673C152.542 13.5395 148.055 11.1968 146.568 19.5778L146.404 21.3927L147.575 21.5336C149.34 21.7461 149.564 22.2193 148.747 24.0077C148.047 25.5391 144.833 28.7725 144.174 28.6089C143.983 28.5613 142.833 29.1718 141.62 29.9653C140.406 30.7588 139.327 31.4025 139.221 31.3957C139.115 31.3891 137.937 32.0691 136.604 32.9073C134.572 34.1852 134.218 34.5477 134.413 35.1531C134.756 36.2216 134.757 36.2197 133.555 37.4302C132.399 38.5952 131.459 41.4225 131.669 43.1007C131.729 43.5725 132.291 44.643 132.919 45.4795C133.92 46.8127 134.116 46.9337 134.511 46.4601C134.838 46.0682 135.931 45.8941 138.49 45.8259C140.43 45.7742 142.577 45.6762 143.262 45.6082C143.947 45.5401 145.857 45.4084 147.506 45.3156C149.751 44.0961 154.872 45.1868 152.848 48.0199C152.402 48.6134 152.036 48.7352 151.237 48.5561C150.456 48.3814 150.099 48.49 149.783 48.9993C149.06 50.1648 149.175 51.6463 150.062 52.593C151.221 53.8309 151.081 55.3653 149.765 55.8403C147.248 56.7492 143.915 59.072 144.516 59.4988C145.003 59.8442 144.775 61.5827 144.148 62.3099C143.356 63.2279 143.3 64.797 144.049 65.0605C153.114 66.1097 153.203 69.2367 148.644 71.7753C146.231 73.1196 145.747 74.0509 145.464 77.8863C145.232 81.0305 145.642 83.4179 146.422 83.4679C147.157 83.515 147.809 84.6242 147.751 85.7289C147.713 86.4702 147.362 86.8359 146.059 87.4912C138.703 91.3217 131.167 97.4124 125.231 100.846C122.597 102.368 121.72 102.918 118.12 105.302C114.552 108.322 110.237 110.616 106.796 113.204C105.801 113.957 103.844 115.374 102.448 116.353C101.051 117.332 99.1131 118.839 98.1403 119.701C94.718 121.506 88.1464 119.384 83.9948 119.218ZM57.2579 113.461C57.2703 113.267 57.0428 113.094 56.7524 113.075C56.4619 113.056 56.2142 113.2 56.2017 113.393C56.1893 113.587 56.4168 113.76 56.7073 113.779C56.9977 113.798 57.2455 113.654 57.2579 113.461ZM67.2485 114.107C66.9334 113.765 64.484 113.457 60.695 113.284C56.5169 113.092 58.4045 113.728 63.0686 114.083C65.5273 114.27 67.4083 114.281 67.2485 114.107V114.107ZM91.8503 115.632C92.9845 115.77 92.9829 115.775 92.3322 114.151C91.8535 112.956 91.7188 112.875 89.6933 112.578C88.5194 112.406 87.2409 112.26 86.8524 112.255C86.4639 112.25 83.3812 111.949 80.002 111.586C67.2641 110.217 59.5732 109.636 47.6366 109.14C44.0493 108.991 40.8764 108.857 40.5856 108.843C40.2949 108.829 39.2635 108.789 38.2935 108.754C37.3237 108.72 34.6622 108.571 32.3792 108.424C29.467 108.238 28.2601 108.278 28.3349 108.561C28.3935 108.782 29.2185 109.041 30.1683 109.136C32.9784 109.415 50.8842 110.563 60.9437 111.107C69.0283 111.545 78.7662 112.53 79.1696 112.951C79.2411 113.025 79.0868 113.312 78.8267 113.587C78.4483 113.988 77.4544 114.025 73.857 113.771C69.2477 113.446 67.8575 113.546 67.815 114.209C67.7981 114.476 71.1807 114.723 79.3383 115.05C85.6894 115.304 91.3199 115.566 91.8504 115.63L91.8503 115.632ZM25.6362 110.443C25.646 110.287 25.0773 109.855 24.372 109.483C23.0169 108.769 21.7283 106.855 21.5154 105.238C21.4452 104.706 21.5832 103.607 21.8223 102.796C22.324 101.093 22.1105 100.951 20.8385 102.143C19.6094 103.296 19.3409 106.617 20.351 108.171C21.2855 109.609 25.5716 111.452 25.6362 110.443ZM98.6709 113.727C98.9809 113.401 98.5977 113.28 96.9117 113.172C95.7262 113.096 94.7493 113.143 94.7408 113.276C94.7323 113.408 95.0422 113.901 95.4295 114.37C96.1133 115.198 96.1643 115.207 97.2041 114.683C97.7929 114.386 98.453 113.956 98.6709 113.727ZM102.309 111.018C103.024 110.477 104.452 109.475 105.483 108.791C110.267 105.379 115.084 102.002 119.736 99.1456C124.398 96.3472 132.021 91.294 135.771 88.5155C136.751 87.7895 138.702 86.639 141.021 85.4197C143.463 84.1359 143.466 84.1324 143.061 83.1997C142.541 82.0032 142.177 79.407 142.28 77.6349C142.328 76.8117 142.208 76.1279 142.013 76.1154C141.819 76.103 140.658 76.9247 139.435 77.9415C138.211 78.9583 136.585 80.1486 135.821 80.5865C135.056 81.0245 133.928 81.7853 133.313 82.2772C132.699 82.7691 131.417 83.5542 130.466 84.0219C129.515 84.4896 128.249 85.2644 127.654 85.7437C124.4 87.5728 121.526 89.3083 118.595 91.3132C115.285 93.689 111.398 95.8563 108.459 97.7821C107.343 98.5129 105.434 99.9619 104.217 101.002C103 102.042 101.942 102.89 101.866 102.885C101.79 102.88 101.09 103.325 100.309 103.874C99.5288 104.423 98.2873 105.037 97.5505 105.239C96.3884 105.557 96.1068 105.85 95.4267 107.447C94.2461 110.22 94.2995 110.449 96.2217 110.852C97.1329 111.044 98.5045 111.363 99.2695 111.561C100.034 111.759 100.739 111.939 100.835 111.961C100.93 111.984 101.594 111.559 102.309 111.018ZM91.9992 107.732C92.447 106.594 93.1441 105.35 93.5482 104.967L94.283 104.27L91.4574 104.103C89.0256 103.96 88.5246 103.822 87.8624 103.115C87.171 102.377 87.0206 102.341 86.3777 102.766C85.3772 103.427 83.9677 103.275 82.9937 102.403C82.2114 101.702 81.4074 101.609 67.7703 100.636C59.8517 100.071 48.102 99.3088 41.6598 98.9431C35.2177 98.5771 29.83 98.2516 29.6872 98.2197C29.5443 98.188 28.9058 98.1471 28.2682 98.1288C27.2026 98.0991 27.1373 98.1584 27.4586 98.8638C27.7114 99.4187 27.6948 99.7308 27.3988 99.9912C27.1737 100.189 26.9813 100.479 26.9713 100.636C26.9612 100.792 37.2115 101.571 49.7496 102.366C71.7445 103.762 81.4199 104.545 81.7842 104.959C82.3532 105.606 80.3851 105.72 73.1476 105.462C68.686 105.302 64.3189 105.184 63.443 105.2C58.3121 105.293 53.6167 105.123 40.3295 104.363C32.1863 103.897 25.3239 103.622 25.0796 103.753C24.8354 103.883 24.6201 104.23 24.6013 104.524C24.571 104.996 25.8086 105.112 35.0552 105.503C48.9653 106.091 71.9564 107.573 77.2129 108.22C79.5278 108.504 82.9985 108.957 84.9256 109.225C86.8527 109.493 89.0494 109.732 89.8073 109.756C91.1708 109.801 91.1935 109.779 91.9993 107.732L91.9992 107.732ZM82.7335 105.401C82.8708 105.102 83.1378 104.867 83.3268 104.879C83.7896 104.909 83.4486 105.69 82.9111 105.832C82.6484 105.901 82.58 105.735 82.7335 105.401ZM24.3282 99.3417L25.9004 98.0372L24.1994 97.9195C22.9898 97.8357 22.5339 97.9317 22.6213 98.2515C22.689 98.4989 22.5925 99.129 22.409 99.6519C21.9439 100.971 22.4667 100.886 24.3282 99.3417V99.3417ZM94.2374 100.437C95.3594 100.375 96.2865 100.181 96.2977 100.006C96.3091 99.8311 96.7057 99.812 97.1795 99.9637C97.8799 100.188 98.3465 99.9711 99.6744 98.8046C101.524 97.1793 104.323 95.115 106.229 93.9706C106.936 93.5455 107.686 93.0248 107.894 92.8134C108.22 92.4822 109.222 91.8568 113.739 89.1672C114.169 88.9117 115.517 88.0345 116.736 87.2179C117.955 86.4014 119.942 85.1787 121.152 84.5009C123.263 82.8833 125.992 81.854 127.956 80.3709C128.468 79.9779 129.547 79.267 130.355 78.7913C131.163 78.3156 132.579 77.3261 133.501 76.5924C134.423 75.8586 137.386 73.7145 140.085 71.8275C142.784 69.9406 144.879 68.2807 144.74 68.1389C144.601 67.997 143.692 67.7411 142.719 67.5702C141.115 67.2881 140.815 67.3541 139.468 68.2885C137.039 69.9729 134.831 71.5607 134.309 71.9986C134.04 72.2244 133.689 72.4015 133.53 72.3922C133.127 72.37 127.367 76.192 127.196 76.5959C127.12 76.777 126.914 76.9158 126.738 76.9046C126.562 76.8932 125.683 77.354 124.784 77.9284C123.885 78.5027 122.535 79.3309 121.784 79.7688C121.032 80.2067 119.932 80.9653 119.338 81.4545C118.744 81.9436 118.202 82.3066 118.133 82.2611C118.064 82.2156 116.81 82.9764 115.345 83.952C113.881 84.9275 112.177 86.0454 111.559 86.4362C110.941 86.827 110.335 87.2654 110.213 87.4105C110.09 87.5556 109.163 88.171 108.152 88.7781C107.141 89.3852 105.141 90.8071 103.708 91.9379C102.274 93.0688 100.332 94.4627 99.3924 95.0355C98.4524 95.6084 96.1741 96.9936 94.3294 98.1138C90.6793 100.331 89.9856 100.93 91.34 100.698C91.8117 100.617 93.1155 100.5 94.2374 100.437ZM88.5483 98.0509C89.4014 97.5524 90.1874 97.0207 90.295 96.8693C90.4025 96.7179 89.7655 96.447 88.8794 96.2672C86.1633 95.7161 85.9645 95.7534 85.9012 96.8249C85.8108 98.3563 86.1188 99.4215 86.5813 99.177C86.81 99.0562 87.6951 98.5494 88.5483 98.0509ZM31.4005 94.9523C37.9893 95.2905 52.1457 96.1095 62.8592 96.7722L82.3381 97.9771L82.1886 97.2331C82.1063 96.8239 82.0486 96.306 82.0603 96.0822C82.0765 95.7771 76.334 95.3477 59.0995 94.3655C22.6153 92.2862 14.5322 91.923 14.2296 92.3492C14.127 92.4936 14.2108 93.0518 14.4153 93.5897C14.7815 94.5522 14.8242 94.5658 17.1042 94.4526C18.3784 94.3892 24.8117 94.6142 31.4005 94.9523ZM92.7367 95.3699C93.0143 95.0758 93.5729 94.7311 93.9779 94.6037C95.0135 94.2781 100.443 90.4796 100.47 90.0619C100.481 89.8723 100.652 89.7274 100.848 89.74C101.137 89.7585 108.914 84.2967 113.553 80.8163C114.133 80.3817 116.206 79.0588 118.16 77.8763C120.115 76.6939 122.691 75.067 123.885 74.2611C126.12 72.7529 126.994 72.2085 132.031 69.1861C136.076 66.7588 137.481 65.7378 138.882 64.2053C140.632 62.2928 140.178 61.9181 137.965 63.4482C136.909 64.1778 135.94 64.7679 135.81 64.7596C135.68 64.7514 135.128 65.1534 134.583 65.6532C134.038 66.153 133.176 66.7968 132.667 67.0839C131.479 67.7532 123.16 73.4357 122.364 74.1214C121.709 74.6853 120.931 75.2118 116.988 77.7589C115.569 78.6761 114.321 79.522 114.217 79.6386C114.112 79.7552 112.864 80.606 111.444 81.5293C110.024 82.4525 107.833 83.9319 106.576 84.8167C105.318 85.7015 104.127 86.415 103.929 86.4023C103.731 86.3896 103.429 86.5771 103.258 86.819C103.087 87.0608 102.368 87.6024 101.661 88.0223C98.352 89.987 91.3106 95.0813 91.2818 95.5314C91.2487 96.0469 92.1968 95.9417 92.7367 95.3699ZM22.4313 88.7299C24.8587 88.7746 27.0029 88.8263 27.1962 88.8446C30.0575 89.116 32.5762 89.2494 34.5946 89.2367C35.9561 89.228 47.6348 89.851 60.5472 90.6209C73.4596 91.3909 84.105 91.9465 84.2037 91.8556C84.3025 91.7647 84.319 91.0499 84.2405 90.2672C84.0725 88.5915 84.9926 88.8211 74.8017 87.9128C65.0936 87.0477 10.5695 83.3298 8.8965 83.4188C7.15922 83.432 5.07371 86.924 7.14725 87.274C7.39625 87.2899 7.68289 87.5686 7.78423 87.8933C7.9479 88.418 8.52774 88.4929 12.9931 88.566C15.7567 88.6114 20.0038 88.6851 22.4313 88.7299ZM90.5314 91.4654C91.0302 91.0599 91.8453 90.495 92.3425 90.2101C92.8397 89.9251 95.0773 88.4268 97.3151 86.8803C103.557 82.5664 103.842 82.374 104.858 81.7822C105.896 81.177 108.264 79.5738 114.164 75.4809C116.28 74.0126 118.428 72.5239 118.937 72.1727C119.445 71.8214 120.636 70.9828 121.582 70.3091C122.528 69.6355 124.252 68.4293 125.414 67.6288C126.576 66.8283 128.236 65.6621 129.104 65.0371C133.073 62.1784 133.885 61.6222 134.255 61.5105C134.747 61.3621 138.001 59.0614 140.956 56.7726C142.184 55.8218 143.547 54.7743 143.985 54.4447C144.481 54.0723 144.887 53.2834 145.057 52.3607C145.308 51.0056 145.264 50.8715 144.549 50.8258C144.118 50.7981 143.109 51.2574 142.308 51.8463C141.506 52.4351 139.438 53.8419 137.713 54.9725C135.988 56.103 134.492 57.1154 134.388 57.2222C134.284 57.3289 133.538 57.7972 132.73 58.2629C131.923 58.7284 130.725 59.5649 130.068 60.1216C129.411 60.6784 128.775 61.1275 128.655 61.1198C128.408 61.104 126.014 62.6282 125.158 63.3459C124.568 63.8409 120.397 66.2849 118.323 67.3514C117.651 67.6972 116.213 68.7505 115.127 69.6923C111.844 72.5398 109.885 74.0578 109.521 74.0345C109.332 74.0226 108.475 74.564 107.616 75.2381C104.952 77.3309 102.16 79.3701 101.215 79.9129C100.717 80.1987 99.8505 80.8755 99.2885 81.4167C98.7266 81.958 98.087 82.4525 97.8671 82.5156C97.391 82.6521 91.849 86.7339 90.0749 88.2547C89.389 88.8426 88.694 89.3151 88.5305 89.3046C88.3671 89.2943 88.0167 89.515 87.7519 89.7955C87.3838 90.1853 87.3507 90.516 87.6111 91.2004C88.0457 92.3428 89.3106 92.4576 90.5314 91.4654ZM92.486 82.2478C92.5071 81.9186 91.8223 82.1799 91.0877 82.7813C90.424 83.3247 90.1557 83.3719 89.7748 83.0122C89.5114 82.7635 88.3862 82.4441 87.2741 82.3023C86.1621 82.1604 84.6241 81.9181 83.8563 81.7638C83.0884 81.6096 81.0392 81.3162 79.3025 81.1118C71.5835 80.2037 63.9748 79.1978 61.0748 78.702C56.8517 77.9801 48.1601 77.1276 35.606 76.2041C26.9738 75.569 25.0253 75.3322 24.0306 74.7967C22.5791 74.0153 21.5574 73.286 21.2679 72.8244C21.1492 72.6353 20.3307 72.9968 19.449 73.6279C18.5672 74.259 17.3536 75.0079 16.7521 75.2922C16.1506 75.5765 15.3397 75.9854 14.95 76.201C14.5604 76.4166 12.8706 77.3413 11.195 78.2559C9.51945 79.1704 8.14416 79.9874 8.13879 80.0713C8.1335 80.1552 14.1918 80.5458 21.6019 80.9396C40.4638 81.1484 53.0905 82.7927 65.1041 83.517C70.8583 83.8633 87.4508 85.3631 87.6289 85.553C87.747 85.679 92.4721 82.4644 92.486 82.2489V82.2478ZM89.0831 76.3225C87.5687 74.652 86.1156 71.3245 86.216 69.757L86.2836 68.7003L62.2475 67.2909C49.0276 66.5157 37.7717 65.9165 37.2342 65.9592C36.6968 66.002 34.3936 65.9505 32.1158 65.8449L27.9745 65.6526L28.9566 66.6339C29.8868 67.5631 30.0801 67.612 32.6091 67.5587C40.1342 67.4001 64.058 68.6683 71.9066 69.6419C74.4142 69.953 77.7703 70.3527 79.3645 70.5303C82.0827 70.8329 83.9631 71.4767 83.4493 71.9286C83.1129 72.2245 80.6156 72.8703 80.3936 72.7188C80.2882 72.6468 79.4362 72.6574 78.5005 72.7394C77.5647 72.8227 76.7332 72.7674 76.6528 72.6166C76.5723 72.4656 70.2102 71.9183 62.5148 71.4004C45.482 70.2541 45.3078 70.2438 38.3493 69.9711C33.2592 69.7717 32.6835 69.8136 31.9762 70.4358C31.5486 70.812 31.2651 71.1862 31.3463 71.2675C31.4275 71.3488 36.3984 71.834 42.3928 72.3455C55.6001 73.4724 58.3901 73.7746 62.2281 74.4935C63.8611 74.7994 68.9881 75.4699 73.6214 75.9837C78.2547 76.4974 82.5187 76.982 83.0969 77.0604C83.6752 77.1389 85.558 77.3352 87.2809 77.4967L90.4136 77.7903L89.0831 76.3226L89.0831 76.3225ZM30.2666 71.2611C30.2727 71.1669 29.6993 70.8035 28.9926 70.4538C27.3552 69.6432 26.0042 68.1842 25.1789 66.335C24.6648 65.1833 24.5744 64.2928 24.7457 62.0692C24.9595 59.2926 24.9551 59.2733 24.3685 60.4513C23.5755 62.044 23.4024 65.0918 23.957 67.6958C24.5653 70.5513 25.1929 71.1082 28.0062 71.2883C29.2434 71.3676 30.2605 71.3552 30.2666 71.2611ZM94.7513 72.1105C96.1917 71.088 98.8404 69.2321 100.637 67.9862C102.434 66.7403 106.425 63.8549 109.507 61.5742C112.588 59.2934 115.275 57.3126 115.479 57.1723C115.682 57.0321 117.237 55.9141 118.934 54.6879C122.739 51.9375 124.965 50.6227 125.351 50.8972C125.513 51.0122 125.522 51.4944 125.369 51.9689L125.093 52.8316L126.221 52.1327C126.841 51.7483 128.227 50.7091 129.301 49.8232L131.253 48.2124L130.327 47.2715C129.184 46.1094 127.886 42.8768 127.993 41.4582C128.037 40.8777 128.323 39.8205 128.63 39.1089C128.936 38.3971 129.068 37.7303 128.922 37.6269C128.777 37.5235 127.603 38.1263 126.314 38.9663C125.025 39.8063 123.452 40.7785 122.818 41.1268C120.989 42.1317 115.998 45.6197 114.36 47.0381C113.537 47.751 112.122 48.7332 111.216 49.2206C110.309 49.7081 109.221 50.4185 108.798 50.7992C107.633 51.8456 105.685 53.2858 105.454 53.271C105.071 53.2464 98.8218 57.8773 97.8274 58.9231C97.063 59.7272 96.8916 60.1514 97.0786 60.7767C97.3849 61.8003 97.5041 61.7998 98.7376 60.7685C99.2936 60.3037 101.414 58.7527 103.45 57.3218C105.486 55.8908 107.322 54.5416 107.531 54.3234C107.739 54.1053 109.321 53.007 111.045 51.8827C112.77 50.7585 114.351 49.6639 114.559 49.4504C114.767 49.2369 115.182 48.9706 115.481 48.8588C115.78 48.7469 116.419 48.4061 116.903 48.1015L117.781 47.5477L117.085 48.7269C116.702 49.3754 116.128 50.1677 115.809 50.4875C115.472 50.8261 115.392 51.0794 115.619 51.0939C115.833 51.1077 116.147 50.9289 116.318 50.6968C116.488 50.4647 116.896 50.1328 117.224 49.9594C117.741 49.6862 119.829 48.1914 123.556 45.4272C124.412 44.7926 124.625 44.7582 124.948 45.2025C125.25 45.6171 125.143 45.9166 124.437 46.6316C122.868 48.2203 120.575 50.1332 118.673 51.4401C117.657 52.1384 116.207 53.2386 115.452 53.8851C114.697 54.5315 113.045 55.8692 111.781 56.8576C108.05 59.7764 105.258 62.0648 101.381 65.3826C93.8221 71.8502 92.3879 72.9371 91.4885 72.8795C90.6396 72.8252 90.35 73.1519 90.7971 73.66C91.3101 74.2433 92.2842 73.8615 94.7513 72.1104L94.7513 72.1105ZM97.0174 66.3239C100.016 63.7239 103.458 60.7776 104.667 59.7766C105.875 58.7757 106.761 57.9502 106.635 57.9421C106.138 57.9102 104.794 58.8069 102.412 60.7602C101.04 61.885 99.7931 62.7994 99.641 62.7922C99.4889 62.7871 98.2249 63.7797 96.832 65.0029C95.4391 66.2261 93.2664 67.9561 92.0038 68.8473C90.7411 69.7386 89.6992 70.597 89.6884 70.7549C89.6781 70.9128 89.8292 71.3943 90.0253 71.8249L90.3819 72.6078L90.9737 71.8295C91.2992 71.4015 94.0188 68.924 97.0174 66.3239ZM105.799 73.0891C105.811 72.8955 105.751 72.7325 105.666 72.727C105.58 72.7215 105.403 72.8693 105.271 73.0552C105.138 73.2412 105.198 73.4041 105.403 73.4172C105.608 73.4302 105.786 73.2827 105.799 73.0891ZM111.221 69.4594C111.889 69.0647 112.444 68.6231 112.455 68.4779C112.464 68.3327 112.672 68.2261 112.914 68.2407C113.505 68.2752 117.087 65.4016 116.824 65.1024C116.644 64.8978 114.773 66.1309 110.46 69.2966C109.073 70.3146 109.588 70.4247 111.221 69.4594ZM92.1842 65.5231C94.319 63.8034 94.3589 63.4172 92.4566 62.8883C91.6977 62.6773 91.2407 62.7407 90.897 63.1047C90.6297 63.3879 90.529 63.6271 90.6732 63.6364C90.8175 63.6456 90.7591 63.8407 90.5436 64.0699C89.9789 64.6705 89.4149 67.0908 89.8334 67.1175C90.0226 67.1297 91.0806 66.4122 92.1842 65.5231ZM47.2722 63.5036C55.3817 63.804 74.0904 65.0682 80.0399 65.7178C82.9934 66.0402 85.665 66.2319 85.9767 66.1438C86.4432 66.0121 88.2426 62.8073 87.9946 62.5499C87.9535 62.5072 85.9863 62.244 83.6231 61.965C79.4356 61.4706 79.2961 61.4777 78.1259 62.2468C76.9998 62.9869 76.5524 63.027 70.9248 62.8931C67.6246 62.8145 61.5942 62.5895 57.524 62.3906C53.4537 62.1927 47.2648 61.9584 43.7708 61.8698C40.2768 61.7813 35.5966 61.5856 33.3703 61.435C28.6638 61.1166 28.0833 61.1941 28.0222 62.1481C27.9778 62.8389 28.1311 62.8594 35.015 63.0823C38.886 63.2067 44.4016 63.3973 47.2722 63.5037V63.5036ZM26.1823 57.5826C26.1892 57.3771 25.9427 57.5017 25.6344 57.8594C25.326 58.2171 25.068 58.6778 25.061 58.8832C25.0544 59.0886 25.3006 58.964 25.609 58.6064C25.9174 58.2487 26.1754 57.788 26.1823 57.5826ZM34.2085 58.7957C36.6643 58.7907 37.4033 58.6596 37.0754 58.2867C36.7293 57.8933 31.3286 57.422 30.8827 57.7463C30.1585 58.273 30.2185 59.1423 30.9662 58.9569C31.312 58.8711 32.771 58.7986 34.2085 58.7957ZM118.025 64.3276C118.038 64.134 117.978 63.9711 117.892 63.9656C117.807 63.96 117.629 64.1078 117.497 64.2937C117.365 64.4797 117.425 64.6426 117.63 64.6557C117.835 64.669 118.013 64.5212 118.025 64.3276ZM39.7378 58.6067C39.8807 58.4055 39.4706 58.236 38.7249 58.1883C38.0358 58.1442 37.4618 58.2665 37.4494 58.4601C37.437 58.6537 37.8928 58.8421 38.4623 58.8785C39.0317 58.9149 39.6057 58.7927 39.7378 58.6067ZM48.2122 59.1125C48.3341 58.9408 46.6647 58.6968 44.3578 58.5491C41.7959 58.385 40.2798 58.4229 40.2651 58.6517C40.2362 59.105 47.9019 59.5494 48.2122 59.1125ZM121.023 62.1638C121.425 61.7246 121.274 61.7512 120.423 62.2691C119.798 62.6499 119.046 63.2256 118.751 63.5484C118.349 63.9876 118.5 63.961 119.351 63.443C119.975 63.0623 120.728 62.4866 121.023 62.1638ZM128.923 56.9931C130.55 55.8825 132.297 54.6853 132.805 54.3327C133.314 53.98 135.041 52.7824 136.643 51.6713C138.244 50.5602 139.374 49.5777 139.153 49.488C138.442 49.1994 136.995 49.6329 136.962 50.1442C136.945 50.4169 136.474 50.9388 135.916 51.3038C135.358 51.669 134.735 52.0792 134.532 52.2155C134.329 52.3518 133.748 52.6161 133.242 52.8028C132.736 52.9894 131.407 53.8616 130.29 54.7408C129.172 55.6201 127.595 56.7604 126.784 57.2749C125.022 58.3931 121.789 61.0976 121.751 61.4846C121.723 61.7762 124.079 60.3011 128.923 56.9931ZM30.6534 54.4898C31.1589 54.5223 31.6748 54.6649 31.7998 54.807C31.9248 54.949 33.1757 55.0793 34.5797 55.0963C35.9838 55.1132 41.2902 55.4108 46.3717 55.7571C51.8071 56.1278 55.6193 56.2533 55.6316 56.061C55.6429 55.8825 54.7424 55.6619 53.6303 55.5711C52.5182 55.48 48.9188 55.1746 45.6317 54.8916C42.3446 54.6087 37.1239 54.1595 34.0301 53.8934C29.2313 53.4806 28.3395 53.4868 27.9587 53.9359C27.2347 54.7897 27.9706 55.5039 28.9562 54.9038C29.3842 54.6431 30.1479 54.4564 30.6534 54.4887V54.4898ZM90.5827 59.0626C90.1877 58.6446 81.3572 57.7581 81.1064 58.1112C81.0009 58.2599 81.9062 58.4926 83.1183 58.6282C88.3876 59.218 90.8657 59.3622 90.5827 59.0626ZM77.2926 57.742C77.4477 57.6061 76.4796 57.4123 75.1413 57.3114C69.427 56.8802 61.6296 56.1253 59.3104 55.7786C56.8679 55.4135 55.7212 55.7032 56.816 56.4088C57.4377 56.8096 76.9098 58.0773 77.2926 57.7423V57.742ZM80.4272 58.0311C80.3199 57.8298 79.687 57.6302 79.0208 57.5876C78.3544 57.5448 77.7991 57.6684 77.7867 57.862C77.7743 58.0557 78.4073 58.2553 79.1932 58.3056C80.0563 58.3609 80.545 58.2522 80.4272 58.0311ZM116.183 59.9677C116.196 59.774 116.048 59.6054 115.854 59.593C115.66 59.5806 115.492 59.7289 115.479 59.9225C115.467 60.1161 115.615 60.2847 115.809 60.2972C116.002 60.3096 116.171 60.1613 116.183 59.9677ZM109.742 55.6666C109.755 55.473 109.695 55.3101 109.61 55.3046C109.524 55.2991 109.346 55.4468 109.214 55.6328C109.082 55.8188 109.142 55.9816 109.347 55.9948C109.552 56.0077 109.73 55.8602 109.742 55.6666ZM92.5141 54.2116C92.6125 54.1923 92.3524 54.0132 91.9361 53.8138C89.7738 52.7782 88.6403 47.3063 90.0889 44.8964C90.4579 44.2824 90.6786 43.6879 90.5794 43.5751C90.4801 43.4623 89.8032 43.2934 89.075 43.1997C86.9801 42.9301 82.615 42.2593 81.277 42.0012C78.9806 41.5583 74.8053 40.983 70.5896 40.5286C62.6448 39.6722 32.2407 37.6903 29.402 37.8437C27.8412 37.9281 26.3887 38.0056 26.1743 38.016C25.9598 38.0263 25.4383 38.9009 25.0152 39.9593C24.5922 41.0178 24.106 42.0259 23.9348 42.1996C23.4563 42.6852 23.3471 45.9894 23.775 47.0692C24.0475 47.7587 24.5008 48.1085 25.375 48.3038C26.7297 48.6065 38.6983 49.6377 57.8943 51.1053C64.8596 51.6379 72.0583 52.2497 73.8916 52.465C75.7248 52.6802 80.1466 53.138 83.7178 53.4821C87.289 53.8262 90.2638 54.1681 90.3287 54.2418C90.4272 54.3538 91.8973 54.3335 92.5152 54.2117L92.5141 54.2116ZM97.938 53.2061C98.881 52.5235 99.9354 51.7161 100.281 51.4119C100.627 51.1078 101.022 50.866 101.158 50.8748C101.295 50.8835 101.915 50.4858 102.536 49.9909C103.157 49.496 104.904 48.2191 106.419 47.1533C109.86 44.7337 111.092 43.8171 112.446 42.6719C113.034 42.1749 113.602 41.7738 113.709 41.7807C113.876 41.7915 114.664 41.2302 117.522 39.0622C117.829 38.8298 118.659 38.2931 119.366 37.8696C120.074 37.4461 120.738 37.0177 120.841 36.9178C121.231 36.5423 128.924 31.8595 133.164 29.4175C135.586 28.0222 137.735 26.7657 137.938 26.6251C139.716 25.3972 142.547 23.7662 143.375 23.4931C144.118 23.2478 144.332 23.0005 144.175 22.568C144.057 22.2433 143.956 20.9018 143.951 19.5867L143.941 17.1956L142.141 18.3219C141.151 18.9414 140.202 19.4393 140.032 19.4284C139.863 19.4175 139.513 19.6328 139.254 19.9066C138.856 20.3281 137.094 21.3143 134.127 22.7758C133.764 22.9546 133.241 23.2577 132.965 23.4494C132.689 23.6412 131.712 24.1506 130.794 24.5815C127.844 25.9667 127.371 26.2087 126.709 26.6743C126.351 26.9257 125.762 27.2857 125.4 27.4742C120.633 30.756 116.501 32.7443 113.189 34.8541C110.452 36.6 109.548 37.1122 106.594 38.5933C102.668 41.0461 96.7453 42.5695 93.3828 45.3394C91.6034 47.0453 91.9455 50.1017 94.1193 51.9202C94.69 52.3976 95.2714 53.1535 95.4112 53.5999C95.5509 54.0463 95.7909 54.4196 95.9445 54.4294C96.098 54.4392 96.9951 53.8888 97.938 53.2061ZM21.8478 40.9454C22.242 39.9558 22.4697 39.0384 22.3539 38.9067C18.164 40.9018 18.168 43.8931 20.7185 46.4786L20.9248 44.6117C21.0383 43.5849 21.4537 41.935 21.8478 40.9454ZM96.0883 38.5425C99.4773 37.1862 101.587 36.1092 105.988 33.4896C110.967 30.5264 111.675 30.0897 113.652 28.7631C119.401 24.9051 124.581 21.8675 127.078 20.8899C131.786 18.1833 134.362 16.8879 137.345 15.1959C140.421 13.4505 142.947 11.8993 142.956 11.7487C142.966 11.5982 141.158 11.3753 138.939 11.2535C136.721 11.1315 134.784 10.9485 134.635 10.8464C134.487 10.7444 132.233 10.419 129.627 10.1235C127.021 9.82791 123.864 9.44593 122.612 9.27469C121.359 9.10342 115.586 8.58377 109.783 8.11985C103.98 7.65598 98.3084 7.13766 97.1799 6.96798C88.1135 5.60498 82.5031 5.14381 78.5974 5.44049C75.3879 5.68428 74.3258 5.95102 72.9223 6.86566C72.618 7.06399 71.618 7.57817 70.7003 8.00823C67.9077 9.31675 67.3131 9.62741 66.7854 10.0535C66.5065 10.2787 66.1218 10.4529 65.9304 10.4406C65.739 10.4282 64.8206 10.9263 63.8896 11.5472C62.9587 12.168 62.0527 12.6668 61.8763 12.6555C54.5 17.129 47.4877 21.3919 39.5623 25.4683C36.3752 27.0926 33.0385 29.0043 30.7552 30.5143C30.0446 30.9842 28.7676 31.6735 27.9174 32.046C26.2232 32.7885 25.7956 33.5305 27.212 33.2699C27.6993 33.1803 31.5905 33.3135 35.8594 33.5659C46.0994 33.7718 56.028 34.5284 65.776 35.4285C68.3937 35.662 71.2448 35.955 72.1118 36.0795C72.9787 36.2041 75.3447 36.5189 77.3695 36.7791C81.475 37.3069 86.7045 38.1689 89.6128 38.7972C92.9018 39.5077 93.7611 39.474 96.0883 38.5425Z" fill="black"/>
</g>
<defs>
<clipPath id="clip0_11_27">
<rect width="153.312" height="120.424" fill="white"/>
</clipPath>
</defs>
</svg>
